<?xml version="1.0" encoding="utf-8"?>
<!-- Generator: Adobe Illustrator 26.0.1, SVG Export Plug-In . SVG Version: 6.00 Build 0)  -->
<svg version="1.1" id="Layer_1" xmlns="http://www.w3.org/2000/svg" xmlns:xlink="http://www.w3.org/1999/xlink" x="0px" y="0px"
	 viewBox="0 0 400 400" style="enable-background:new 0 0 400 400;" xml:space="preserve">
<style type="text/css">
	.st0{display:none;fill-rule:evenodd;clip-rule:evenodd;fill:#878787;}
	.st1{display:none;}
	.st2{display:inline;}
	.st3{display:inline;fill:#878787;}
	.st4{display:inline;fill-rule:evenodd;clip-rule:evenodd;fill:url(#SVGID_1_);}
	.st5{fill-rule:evenodd;clip-rule:evenodd;fill:#878787;}
	.st6{display:none;fill:#878787;}
	.st7{fill:#878787;}
	.st8{fill-rule:evenodd;clip-rule:evenodd;fill:url(#SVGID_00000155137728334843536330000004466616498519901595_);}
</style>
<path class="st0" d="M44.2,60c-24.3,29-24.3,65.7-24.3,150v190l197.5-27.7c67-8,100.5-12,123.9-30.7c9-7.3,16.8-16,22.9-25.8
	c15.9-25.3,15.9-59,15.9-126.4v0v0c0-83.6,0-120-21.3-147.9c-8.2-10.7-18.4-19.7-30-26.6C298.4-2.9,279.9-3.4,195.5,6.5
	c-10.7,1.3-20.5,2.3-29.4,3.3c-61.2,6.6-83.2,9-117.9,45.7C46.8,56.9,45.5,58.5,44.2,60z M148.5,298.3c4.2,2.6,7.9,4.2,11.4,4.7
	c3.4,0.6,7.7,0.5,12.7,0l46.6-5.5c16.3-1.9,31.5-13.7,45.6-35.4c4.9-7.5,8.7-15.7,11.7-24.6l-39.4-6.1
	c-5.7,11.4-11.6,19.5-17.6,24.2l-46.3,5.4c-0.7,0-3-1.7-6.9-5.3c-3.9-3.6-5.9-5.7-5.9-6.5l-0.2-108c0-0.7,2-3.3,5.9-7.8
	c3.9-4.5,6.2-6.8,6.9-6.9l46.3-5.4c6,3.4,11.9,10.1,17.7,20.1l39.4-15.3c-2.8-7.8-6.7-15-11.8-21.8c-5.3-7.2-11.9-13.4-19.7-18.6
	c-7.9-5.2-16.5-7.2-25.9-6.1L172.2,85c-5,0.6-9.3,1.6-12.8,2.9c-3.4,1.3-7.3,3.8-11.4,7.4c-3.4,2.8-7.5,6.8-12.1,12.1
	c-4.6,5.3-8.2,10-10.7,14.1c-3,4.6-4.9,8.8-5.9,12.5c-0.9,3.7-1.3,8.1-1.3,13.4l0.2,105.8c0,5.2,0.5,9.6,1.4,13
	c0.9,3.5,2.9,7.2,5.9,11.1c2.5,3.3,6,7,10.5,11.3C140.7,292.9,144.8,296.2,148.5,298.3z"/>
<g class="st1">
	<path class="st2" d="M87.1,261.1l69.1,58.8l75.9,25.3l91.8-6.9c0,0,2.5-0.1,4.6-1.7c-32.8-27.4-71.3-49.2-114.4-63.3
		S127,254.2,84.3,257.1C85.2,259.7,87.1,261.1,87.1,261.1L87.1,261.1z"/>
	<path class="st3" d="M246.7,344.3c0,0-13.1-16.6-46.8-27.6c-33-10.8-54.1-5.2-54.1-5.2l41.3,35.2c1.5,1.3,3.5,1.9,5.4,1.8
		L246.7,344.3z"/>
	
		<linearGradient id="SVGID_1_" gradientUnits="userSpaceOnUse" x1="175.9295" y1="59.2392" x2="18.4853" y2="73.9109" gradientTransform="matrix(1 0 0 -1 0 402)">
		<stop  offset="0" style="stop-color:#FFFFFF"/>
		<stop  offset="1" style="stop-color:#FFFFFF;stop-opacity:0"/>
	</linearGradient>
	<path class="st4" d="M5.5,311.2c-5.1,4.2-7.1,23.4,26.2,36.9c24.1,9.7,46.8,3.3,56.4,0.6c11.3-3.2,21.9-4.7,34.9,0.4
		c22.4,8.7,40.3,4.5,47.9,1.7c0.6-0.2,0.6-0.8,0.2-1.3c-2.1-2.3-32.1-34-65.8-31.5c-15,1.1-33.3,7.7-44.1,6.2
		C27,319.5,23.2,296.4,5.5,311.2z"/>
</g>
<g id="social-portrait" class="st1">
	<g id="Portrait---My-Friends-subpage-_x2F_-games" transform="translate(-122.000000, -88.000000)" class="st2">
		<g id="logo" transform="translate(122.000000, 88.000000)">
			<path id="Combined-Shape" class="st5" d="M303.9,20.7c52.8,0,95.9,43.5,95.9,96.6v165.4c0,53.1-43.2,96.6-95.9,96.6H96.1
				c-52.8,0-95.9-43.5-95.9-96.6V117.3c0-53.1,43.2-96.6,95.9-96.6H303.9z M158.4,119.6h-33.3v164.9h33.3V119.6z M255.2,119.6H175
				v164.9h80.2c3.9,0,7.2-0.4,9.9-1.1c2.7-0.7,5.6-2.3,8.8-4.7c2.7-1.8,5.8-4.6,9.4-8.2c3.6-3.7,6.3-7,8.3-9.9
				c2.3-3.3,3.8-6.3,4.5-9.1c0.7-2.7,1.1-6.1,1.1-10.2l0,0v-78.6c0-4-0.4-7.4-1.1-10.2c-0.7-2.7-2.2-5.8-4.5-9.1
				c-2-2.7-4.7-6-8.2-9.6c-3.5-3.7-6.6-6.5-9.5-8.5c-3.2-2.4-6.1-3.9-8.8-4.7C262.4,120,259.1,119.6,255.2,119.6L255.2,119.6z
				 M254.7,151.8c0.5,0,2.3,1.6,5.3,4.7c3,3.1,4.5,4.9,4.5,5.5l0,0v80.3c0,0.6-1.5,2.4-4.5,5.5c-3,3.1-4.8,4.7-5.3,4.7l0,0h-47
				V151.8H254.7z"/>
		</g>
	</g>
</g>
<path class="st6" d="M394,123.4C361.9,97.4,324.3,76.5,282.6,63c-41.7-13.6-84-18.8-125.3-16.7c-3.8,0.2-7,2.7-8.2,6.3L84.3,251.4
	c-0.6,1.9-0.6,3.9,0,5.7c0.5,1.6,242.8,80.6,244.1,79.6c1.5-1.1,2.7-2.7,3.4-4.6l65.1-198.7C398.1,129.8,396.9,125.8,394,123.4
	L394,123.4z"/>
<g id="GXwIxk.tif" class="st1">
	
		<image style="display:inline;overflow:visible;" width="386" height="314" id="Layer_0_00000022528189045654723070000004007630680310613164_" xlink:href="4FA0C9B4FDDA9A6.png"  transform="matrix(1 0 0 1 17 43)">
	</image>
</g>
<path class="st6" d="M306.6,105.2c9.9,2.4,19.7,5,29.4,7.8c-15,43.3-30,86.7-44.9,130c-9.1-2.7-18.3-5.1-27.6-7.4
	c9-26.2,18.1-52.3,27.1-78.5c-13.5,14-26.9,28.1-40.2,42.2c-6.1-1.2-12.3-2.4-18.5-3.4c-2.5-16.9-5.1-33.7-7.7-50.6
	c-9,26-18,52-26.9,78c-9.5-1.2-19.1-2.2-28.6-3c15-43.3,30-86.7,44.9-130c10.3,0.9,20.5,2,30.7,3.3c3.7,21.6,7.4,43.2,10.9,64.8
	C272.2,140.6,289.4,122.9,306.6,105.2L306.6,105.2z"/>
<path class="st5" d="M283.2,62.5c41.7,13.6,79.4,34.4,111.5,60.6c2.9,2.4,4.1,6.3,2.9,9.9l-65.1,198.9c-0.6,1.9-1.8,3.5-3.4,4.6
	c-32.8-27.5-71.4-49.3-114.6-63.3c-43.2-14.1-87.2-19.2-129.9-16.4c0,0,0,0,0,0c0,0,0,0,0,0c-0.6-1.8-0.6-3.8,0-5.7l64.9-199
	c1.2-3.6,4.4-6.1,8.2-6.3C199,43.6,241.5,48.9,283.2,62.5z M297.9,115.8c9.1,4.3,18,9,26.6,14.2c-13.6,42.1-27.2,84.3-40.9,126.4
	c-8.1-4.9-16.4-9.3-24.9-13.4c8.2-25.4,16.4-50.9,24.6-76.3c-12.5,12.2-24.8,24.5-37.1,36.9c-5.8-2.1-11.7-4-17.6-5.7
	c-2.7-17.1-5.5-34.1-8.4-51.2c-8.2,25.3-16.3,50.6-24.5,75.9c-9.3-1.7-18.6-2.9-28-3.7c13.6-42.1,27.2-84.3,40.9-126.4
	c10.1,0.9,20.1,2.2,30.1,4.1c4.1,22,8,44,11.6,66C266,146.9,281.8,131.2,297.9,115.8z"/>
<path class="st7" d="M247.2,344.1c0,0-13.1-16.7-46.8-27.7c-33.1-10.8-54.2-5.3-54.2-5.3l41.4,35.2c1.5,1.3,3.5,1.9,5.4,1.8
	L247.2,344.1z"/>
<linearGradient id="SVGID_00000033328316871681346930000003560047322163497658_" gradientUnits="userSpaceOnUse" x1="176.4647" y1="59.4194" x2="18.8534" y2="74.1102" gradientTransform="matrix(1 0 0 -1 0 402)">
	<stop  offset="0" style="stop-color:#878787"/>
	<stop  offset="1" style="stop-color:#878787;stop-opacity:0"/>
</linearGradient>
<path style="fill-rule:evenodd;clip-rule:evenodd;fill:url(#SVGID_00000033328316871681346930000003560047322163497658_);" d="
	M5.8,310.9c-5.1,4.2-7.1,23.5,26.3,36.9c24.1,9.7,46.8,3.3,56.4,0.6c11.4-3.2,21.9-4.7,35,0.4c22.5,8.7,40.4,4.5,48,1.7
	c0.6-0.2,0.6-0.8,0.2-1.3c-2.1-2.3-32.1-34-65.8-31.5c-15,1.1-33.3,7.7-44.1,6.2C27.3,319.3,23.4,296.2,5.8,310.9z"/>
</svg>
