<?xml version="1.0" encoding="utf-8"?>
<!-- Generator: Adobe Illustrator 26.0.1, SVG Export Plug-In . SVG Version: 6.00 Build 0)  -->
<svg version="1.1" id="Layer_1" xmlns="http://www.w3.org/2000/svg" xmlns:xlink="http://www.w3.org/1999/xlink" x="0px" y="0px"
	 viewBox="0 0 400 400" style="enable-background:new 0 0 400 400;" xml:space="preserve">
<style type="text/css">
	.st0{fill-rule:evenodd;clip-rule:evenodd;fill:#878787;}
	.st1{display:none;}
	.st2{display:inline;fill:#878787;}
	.st3{display:inline;}
	.st4{display:inline;fill-rule:evenodd;clip-rule:evenodd;fill:url(#SVGID_1_);}
</style>
<path class="st0" d="M44.2,60c-24.3,29-24.3,65.7-24.3,150v190l197.5-27.7c67-8,100.5-12,123.9-30.7c9-7.3,16.8-16,22.9-25.8
	c15.9-25.3,15.9-59,15.9-126.4v0v0c0-83.6,0-120-21.3-147.9c-8.2-10.7-18.4-19.7-30-26.6C298.4-2.9,279.9-3.4,195.5,6.5
	c-10.7,1.3-20.5,2.3-29.4,3.3c-61.2,6.6-83.2,9-117.9,45.7C46.8,56.9,45.5,58.5,44.2,60z M148.5,298.3c4.2,2.6,7.9,4.2,11.4,4.7
	c3.4,0.6,7.7,0.5,12.7,0l46.6-5.5c16.3-1.9,31.5-13.7,45.6-35.4c4.9-7.5,8.7-15.7,11.7-24.6l-39.4-6.1
	c-5.7,11.4-11.6,19.5-17.6,24.2l-46.3,5.4c-0.7,0-3-1.7-6.9-5.3c-3.9-3.6-5.9-5.7-5.9-6.5l-0.2-108c0-0.7,2-3.3,5.9-7.8
	c3.9-4.5,6.2-6.8,6.9-6.9l46.3-5.4c6,3.4,11.9,10.1,17.7,20.1l39.4-15.3c-2.8-7.8-6.7-15-11.8-21.8c-5.3-7.2-11.9-13.4-19.7-18.6
	c-7.9-5.2-16.5-7.2-25.9-6.1L172.2,85c-5,0.6-9.3,1.6-12.8,2.9c-3.4,1.3-7.3,3.8-11.4,7.4c-3.4,2.8-7.5,6.8-12.1,12.1
	c-4.6,5.3-8.2,10-10.7,14.1c-3,4.6-4.9,8.8-5.9,12.5c-0.9,3.7-1.3,8.1-1.3,13.4l0.2,105.8c0,5.2,0.5,9.6,1.4,13
	c0.9,3.5,2.9,7.2,5.9,11.1c2.5,3.3,6,7,10.5,11.3C140.7,292.9,144.8,296.2,148.5,298.3z"/>
<g class="st1">
	<path class="st2" d="M394,123.4C361.9,97.4,324.3,76.5,282.6,63c-41.7-13.6-84-18.8-125.3-16.7c-3.8,0.2-7,2.7-8.2,6.3L84.3,251.4
		c-0.6,1.9-0.6,3.9,0,5.7c0.5,1.6,242.8,80.6,244.1,79.6c1.5-1.1,2.7-2.7,3.4-4.6l65.1-198.7C398.1,129.8,396.9,125.8,394,123.4
		L394,123.4z"/>
	<path class="st3" d="M249.4,88.4c5,1.2,10,2.6,15,4c-7.2,22.1-14.4,44.1-21.6,66.2c-4.7-1.4-9.4-2.6-14.1-3.8
		c4.3-13.3,8.7-26.6,13-39.9c-6.7,7.1-13.4,14.3-20,21.5c-3.1-0.6-6.3-1.2-9.4-1.7c-1.4-8.6-2.9-17.2-4.4-25.7
		c-4.3,13.2-8.6,26.5-12.9,39.7c-4.9-0.6-9.7-1.1-14.6-1.5c7.2-22.1,14.4-44.1,21.6-66.2c5.2,0.5,10.4,1,15.7,1.7
		c2.1,11,4.2,22,6.2,33C232.3,106.5,240.8,97.4,249.4,88.4L249.4,88.4z M305.3,184.4c0-5,0-9.9,0.1-14.9c-7.7-4-15.5-7.7-23.5-11.1
		c-2.8,3.6-5.6,7.3-8.4,10.9c-4.9-2-9.8-3.8-14.7-5.6c14.9-19,29.9-38,45-56.9c5,2.2,9.9,4.6,14.8,7c0.3,26.1,0.5,52.3,0.5,78.4
		C314.5,189.6,309.9,186.9,305.3,184.4z M290.4,147.4c5,2.3,10,4.6,14.9,7.1c0-8.8,0-17.6,0-26.5
		C300.4,134.4,295.4,140.9,290.4,147.4z M196.8,238c-4.1-10.7-8.4-21.4-12.8-32c-1.5-0.3-2.3-0.4-3.8-0.6c-3,9.2-6,18.4-9,27.6
		c-5-0.8-10.1-1.4-15.1-2c7.2-22.1,14.4-44.2,21.6-66.3c5.1,0.5,10.1,1.2,15.1,2c-2.9,8.9-5.8,17.8-8.7,26.7
		c1.5,0.2,2.3,0.4,3.8,0.6c10-7.6,20.2-15.1,30.4-22.4c5.8,1.4,11.6,2.9,17.4,4.5c-12.4,8.5-24.6,17.1-36.7,25.9
		c5.5,13.5,10.7,27,15.8,40.6C208.9,241,202.9,239.4,196.8,238L196.8,238z M302.3,217.9c-10.3-5.6-20.8-10.8-31.6-15.5
		c-1.5,4.5-3,9.1-4.4,13.6c10.4,4.6,20.6,9.5,30.6,14.9c-1.4,4.3-2.8,8.6-4.2,12.9c-10-5.4-20.1-10.4-30.6-14.9
		c-1.5,4.6-3,9.3-4.5,13.9c10.8,4.7,21.3,9.9,31.6,15.5c-1.4,4.3-2.8,8.6-4.2,12.9c-14.9-8.1-30.3-15.3-46.2-21.4
		c7.2-22.1,14.4-44.2,21.6-66.3c15.9,6.2,31.2,13.3,46.2,21.4C305.1,209.3,303.7,213.6,302.3,217.9L302.3,217.9z"/>
	<path class="st3" d="M87.1,261.1l69.1,58.8l75.9,25.3l91.8-6.9c0,0,2.5-0.1,4.6-1.7c-32.8-27.4-71.3-49.2-114.4-63.3
		S127,254.2,84.3,257.1C85.2,259.7,87.1,261.1,87.1,261.1L87.1,261.1z"/>
	<path class="st2" d="M246.7,344.3c0,0-13.1-16.6-46.8-27.6c-33-10.8-54.1-5.2-54.1-5.2l41.3,35.2c1.5,1.3,3.5,1.9,5.4,1.8
		L246.7,344.3z"/>
	
		<linearGradient id="SVGID_1_" gradientUnits="userSpaceOnUse" x1="175.9295" y1="59.2392" x2="18.4853" y2="73.9109" gradientTransform="matrix(1 0 0 -1 0 402)">
		<stop  offset="0" style="stop-color:#878787"/>
		<stop  offset="1" style="stop-color:#606060;stop-opacity:0"/>
	</linearGradient>
	<path class="st4" d="M5.5,311.2c-5.1,4.2-7.1,23.4,26.2,36.9c24.1,9.7,46.8,3.3,56.4,0.6c11.3-3.2,21.9-4.7,34.9,0.4
		c22.4,8.7,40.3,4.5,47.9,1.7c0.6-0.2,0.6-0.8,0.2-1.3c-2.1-2.3-32.1-34-65.8-31.5c-15,1.1-33.3,7.7-44.1,6.2
		C27,319.5,23.2,296.4,5.5,311.2z"/>
</g>
<g id="social-portrait" class="st1">
	<g id="Portrait---My-Friends-subpage-_x2F_-games" transform="translate(-122.000000, -88.000000)" class="st3">
		<g id="logo" transform="translate(122.000000, 88.000000)">
			<path id="Combined-Shape" class="st0" d="M303.9,20.7c52.8,0,95.9,43.5,95.9,96.6v165.4c0,53.1-43.2,96.6-95.9,96.6H96.1
				c-52.8,0-95.9-43.5-95.9-96.6V117.3c0-53.1,43.2-96.6,95.9-96.6H303.9z M158.4,119.6h-33.3v164.9h33.3V119.6z M255.2,119.6H175
				v164.9h80.2c3.9,0,7.2-0.4,9.9-1.1c2.7-0.7,5.6-2.3,8.8-4.7c2.7-1.8,5.8-4.6,9.4-8.2c3.6-3.7,6.3-7,8.3-9.9
				c2.3-3.3,3.8-6.3,4.5-9.1c0.7-2.7,1.1-6.1,1.1-10.2l0,0v-78.6c0-4-0.4-7.4-1.1-10.2c-0.7-2.7-2.2-5.8-4.5-9.1
				c-2-2.7-4.7-6-8.2-9.6c-3.5-3.7-6.6-6.5-9.5-8.5c-3.2-2.4-6.1-3.9-8.8-4.7C262.4,120,259.1,119.6,255.2,119.6L255.2,119.6z
				 M254.7,151.8c0.5,0,2.3,1.6,5.3,4.7c3,3.1,4.5,4.9,4.5,5.5l0,0v80.3c0,0.6-1.5,2.4-4.5,5.5c-3,3.1-4.8,4.7-5.3,4.7l0,0h-47
				V151.8H254.7z"/>
		</g>
	</g>
</g>
</svg>
